<svg width="20" height="20" viewBox="0 0 20 20" fill="none" xmlns="http://www.w3.org/2000/svg">
<path d="M4.5 17C4.0875 17 3.73438 16.8531 3.44063 16.5594C3.14687 16.2656 3 15.9125 3 15.5V5C3 4.5875 3.14687 4.23437 3.44063 3.94062C3.73438 3.64687 4.0875 3.5 4.5 3.5H10.5C10.5 3.7125 10.5 3.94375 10.5 4.19375C10.5 4.44375 10.5 4.7125 10.5 5H4.5V15.5H15V9.5C15.2875 9.5 15.5563 9.5 15.8063 9.5C16.0563 9.5 16.2875 9.5 16.5 9.5V15.5C16.5 15.9125 16.3531 16.2656 16.0594 16.5594C15.7656 16.8531 15.4125 17 15 17H4.5ZM5.25 14H14.25L11.4375 10.25L9.1875 13.25L7.5 11L5.25 14ZM13.5 8V6.5H12V5H13.5V3.5H15V5H16.5V6.5H15V8H13.5Z" fill="#1D2129"/>
</svg>
