<svg width="24" height="24" viewBox="0 0 24 24" fill="none" xmlns="http://www.w3.org/2000/svg">
<path d="M17.8334 9.5L16.7917 7.20834L14.5 6.16667L16.7917 5.125L17.8334 2.83334L18.875 5.125L21.1667 6.16667L18.875 7.20834L17.8334 9.5ZM17.8334 21.1667L16.7917 18.875L14.5 17.8333L16.7917 16.7917L17.8334 14.5L18.875 16.7917L21.1667 17.8333L18.875 18.875L17.8334 21.1667ZM9.50004 18.6667L7.41671 14.0833L2.83337 12L7.41671 9.91667L9.50004 5.33334L11.5834 9.91667L16.1667 12L11.5834 14.0833L9.50004 18.6667ZM9.50004 14.625L10.3334 12.8333L12.125 12L10.3334 11.1667L9.50004 9.375L8.66671 11.1667L6.87504 12L8.66671 12.8333L9.50004 14.625Z" fill="white"/>
</svg>
