<svg width="32" height="32" viewBox="0 0 32 32" fill="none" xmlns="http://www.w3.org/2000/svg">
<path d="M22.8055 13.0833L21.5903 10.4097L18.9167 9.19444L21.5903 7.97916L22.8055 5.30555L24.0208 7.97916L26.6944 9.19444L24.0208 10.4097L22.8055 13.0833ZM22.8055 26.6944L21.5903 24.0208L18.9167 22.8056L21.5903 21.5903L22.8055 18.9167L24.0208 21.5903L26.6944 22.8056L24.0208 24.0208L22.8055 26.6944ZM13.0833 23.7778L10.6528 18.4306L5.30554 16L10.6528 13.5694L13.0833 8.22222L15.5139 13.5694L20.8611 16L15.5139 18.4306L13.0833 23.7778ZM13.0833 19.0625L14.0555 16.9722L16.1458 16L14.0555 15.0278L13.0833 12.9375L12.1111 15.0278L10.0208 16L12.1111 16.9722L13.0833 19.0625Z" fill="currentColor"/>
</svg>
