<svg width="172" height="172" viewBox="0 0 172 172" fill="none" xmlns="http://www.w3.org/2000/svg">
<g opacity="0.03">
<path d="M45.1667 138.5C41.9583 138.5 39.2118 137.358 36.9271 135.073C34.6424 132.788 33.5 130.042 33.5 126.833V45.1667C33.5 41.9583 34.6424 39.2118 36.9271 36.9271C39.2118 34.6424 41.9583 33.5 45.1667 33.5H126.833C130.042 33.5 132.788 34.6424 135.073 36.9271C137.358 39.2118 138.5 41.9583 138.5 45.1667V126.833C138.5 130.042 137.358 132.788 135.073 135.073C132.788 137.358 130.042 138.5 126.833 138.5H45.1667ZM45.1667 126.833H64.5625V107.437H45.1667V126.833ZM76.2292 126.833H95.7708V107.437H76.2292V126.833ZM107.437 126.833H126.833V107.437H107.437V126.833ZM45.1667 95.7708H64.5625V76.2292H45.1667V95.7708ZM76.2292 95.7708H95.7708V76.2292H76.2292V95.7708ZM107.437 95.7708H126.833V76.2292H107.437V95.7708ZM45.1667 64.5625H64.5625V45.1667H45.1667V64.5625ZM76.2292 64.5625H95.7708V45.1667H76.2292V64.5625ZM107.437 64.5625H126.833V45.1667H107.437V64.5625Z" fill="#0068FF"/>
</g>
</svg>
