<svg width="16" height="16" viewBox="0 0 16 16" fill="none" xmlns="http://www.w3.org/2000/svg">
<path d="M7.44446 10.7778H8.55557V7.44445H7.44446V10.7778ZM8.00001 6.33333C8.15742 6.33333 8.28937 6.28009 8.39585 6.17361C8.50233 6.06713 8.55557 5.93519 8.55557 5.77778C8.55557 5.62037 8.50233 5.48843 8.39585 5.38195C8.28937 5.27546 8.15742 5.22222 8.00001 5.22222C7.84261 5.22222 7.71066 5.27546 7.60418 5.38195C7.4977 5.48843 7.44446 5.62037 7.44446 5.77778C7.44446 5.93519 7.4977 6.06713 7.60418 6.17361C7.71066 6.28009 7.84261 6.33333 8.00001 6.33333ZM8.00001 13.5556C7.2315 13.5556 6.50927 13.4097 5.83335 13.1181C5.15742 12.8264 4.56946 12.4306 4.06946 11.9306C3.56946 11.4306 3.17362 10.8426 2.88196 10.1667C2.59029 9.49074 2.44446 8.76852 2.44446 8C2.44446 7.23148 2.59029 6.50926 2.88196 5.83333C3.17362 5.15741 3.56946 4.56945 4.06946 4.06945C4.56946 3.56945 5.15742 3.17361 5.83335 2.88195C6.50927 2.59028 7.2315 2.44445 8.00001 2.44445C8.76853 2.44445 9.49075 2.59028 10.1667 2.88195C10.8426 3.17361 11.4306 3.56945 11.9306 4.06945C12.4306 4.56945 12.8264 5.15741 13.1181 5.83333C13.4097 6.50926 13.5556 7.23148 13.5556 8C13.5556 8.76852 13.4097 9.49074 13.1181 10.1667C12.8264 10.8426 12.4306 11.4306 11.9306 11.9306C11.4306 12.4306 10.8426 12.8264 10.1667 13.1181C9.49075 13.4097 8.76853 13.5556 8.00001 13.5556ZM8.00001 12.4444C9.24075 12.4444 10.2917 12.0139 11.1528 11.1528C12.0139 10.2917 12.4445 9.24074 12.4445 8C12.4445 6.75926 12.0139 5.70833 11.1528 4.84722C10.2917 3.98611 9.24075 3.55556 8.00001 3.55556C6.75927 3.55556 5.70835 3.98611 4.84724 4.84722C3.98612 5.70833 3.55557 6.75926 3.55557 8C3.55557 9.24074 3.98612 10.2917 4.84724 11.1528C5.70835 12.0139 6.75927 12.4444 8.00001 12.4444Z" fill="#94A3B8"/>
</svg>
