<svg width="20" height="24" viewBox="0 0 20 24" fill="none" xmlns="http://www.w3.org/2000/svg">
<path fill-rule="evenodd" clip-rule="evenodd" d="M18.334 12.8324C18.334 17.4263 14.6099 21.1504 10.016 21.1504C5.42218 21.1504 1.69812 17.4263 1.69812 12.8324C1.69812 8.23859 5.42218 4.51453 10.016 4.51453C14.6099 4.51453 18.334 8.23859 18.334 12.8324Z" fill="#141414" fill-opacity="0.08"/>
<path d="M9.99998 20.3347C14.6027 20.3347 18.334 16.6035 18.334 12.0007C18.334 7.39796 14.6027 3.66669 9.99998 3.66669C5.39723 3.66669 1.66595 7.39796 1.66595 12.0007C1.66595 16.6035 5.39723 20.3347 9.99998 20.3347Z" fill="#309256"/>
<path fill-rule="evenodd" clip-rule="evenodd" d="M9.99998 18.9457C13.8356 18.9457 16.945 15.8363 16.945 12.0007C16.945 8.16508 13.8356 5.05569 9.99998 5.05569C6.16435 5.05569 3.05496 8.16508 3.05496 12.0007C3.05496 15.8363 6.16435 18.9457 9.99998 18.9457ZM18.334 12.0007C18.334 16.6035 14.6027 20.3347 9.99998 20.3347C5.39723 20.3347 1.66595 16.6035 1.66595 12.0007C1.66595 7.39796 5.39723 3.66669 9.99998 3.66669C14.6027 3.66669 18.334 7.39796 18.334 12.0007Z" fill="#2A814B"/>
<path fill-rule="evenodd" clip-rule="evenodd" d="M13.79 9.95193L14.3618 10.5238C14.5198 10.6817 14.5198 10.9377 14.3618 11.0956L9.78723 15.6702C9.72649 15.7309 9.65125 15.7683 9.57265 15.7823L9.52518 15.7879H9.47744C9.38206 15.7823 9.28828 15.7431 9.2154 15.6702L6.64217 13.097C6.48427 12.9391 6.48427 12.6831 6.64217 12.5252L7.214 11.9533C7.37191 11.7954 7.62792 11.7954 7.78583 11.9533L9.50133 13.6687L13.2182 9.95193C13.3761 9.79402 13.6321 9.79402 13.79 9.95193Z" fill="#141414" fill-opacity="0.2"/>
<path fill-rule="evenodd" clip-rule="evenodd" d="M13.3741 9.53597L13.946 10.1078C14.1039 10.2657 14.1039 10.5217 13.946 10.6796L9.37133 15.2543C9.3106 15.315 9.23535 15.3524 9.15676 15.3664L9.10929 15.372H9.06155C8.96616 15.3664 8.87238 15.3271 8.7995 15.2543L6.22628 12.681C6.06837 12.5231 6.06837 12.2671 6.22628 12.1092L6.79811 11.5374C6.95601 11.3795 7.21203 11.3795 7.36993 11.5374L9.08543 13.2527L12.8023 9.53597C12.9602 9.37807 13.2162 9.37807 13.3741 9.53597Z" fill="white"/>
</svg>
