<svg width="58" height="61" viewBox="0 0 58 61" fill="none" xmlns="http://www.w3.org/2000/svg">
<g filter="url(#filter0_d_9_2252)">
<rect x="1" y="1" width="56" height="56" rx="28" fill="#0068FF" fill-opacity="0.05" shape-rendering="crispEdges"/>
<path d="M28.6497 36.005C26.7817 35.9077 25.2056 35.1878 23.9214 33.8451C22.6371 32.5025 21.995 30.8875 21.995 29C21.995 27.0542 22.676 25.4002 24.0381 24.0381C25.4002 22.676 27.0541 21.995 29 21.995C30.8874 21.995 32.5025 22.6371 33.8451 23.9214C35.1877 25.2056 35.9077 26.7818 36.005 28.6498L33.5532 27.9201C33.3003 26.8693 32.7554 26.0083 31.9187 25.337C31.082 24.6657 30.1091 24.33 29 24.33C27.7157 24.33 26.6163 24.7873 25.7018 25.7018C24.7873 26.6164 24.33 27.7158 24.33 29C24.33 30.1091 24.6656 31.082 25.337 31.9188C26.0083 32.7555 26.8693 33.3003 27.92 33.5533L28.6497 36.005ZM30.0507 40.6166C29.8756 40.6555 29.7005 40.675 29.5254 40.675C29.3502 40.675 29.1751 40.675 29 40.675C27.3849 40.675 25.8672 40.3685 24.4467 39.7556C23.0263 39.1427 21.7907 38.3108 20.7399 37.2601C19.6892 36.2093 18.8573 34.9737 18.2444 33.5533C17.6315 32.1328 17.325 30.615 17.325 29C17.325 27.385 17.6315 25.8672 18.2444 24.4468C18.8573 23.0263 19.6892 21.7907 20.7399 20.7399C21.7907 19.6892 23.0263 18.8573 24.4467 18.2444C25.8672 17.6315 27.3849 17.325 29 17.325C30.615 17.325 32.1328 17.6315 33.5532 18.2444C34.9737 18.8573 36.2093 19.6892 37.26 20.7399C38.3108 21.7907 39.1426 23.0263 39.7556 24.4468C40.3685 25.8672 40.675 27.385 40.675 29C40.675 29.1751 40.675 29.3503 40.675 29.5254C40.675 29.7005 40.6555 29.8756 40.6166 30.0508L38.34 29.3503V29C38.34 26.3926 37.4352 24.1841 35.6255 22.3744C33.8159 20.5648 31.6074 19.66 29 19.66C26.3926 19.66 24.184 20.5648 22.3744 22.3744C20.5648 24.1841 19.66 26.3926 19.66 29C19.66 31.6074 20.5648 33.8159 22.3744 35.6256C24.184 37.4352 26.3926 38.34 29 38.34C29.0584 38.34 29.1167 38.34 29.1751 38.34C29.2335 38.34 29.2919 38.34 29.3502 38.34L30.0507 40.6166ZM38.9529 41.2588L33.9619 36.2677L32.5025 40.675L29 29L40.675 32.5025L36.2677 33.9619L41.2587 38.9529L38.9529 41.2588Z" fill="#0068FF" fill-opacity="0.4"/>
</g>
<defs>
<filter id="filter0_d_9_2252" x="0" y="0" width="58" height="58" filterUnits="userSpaceOnUse" color-interpolation-filters="sRGB">
<feFlood flood-opacity="0" result="BackgroundImageFix"/>
<feColorMatrix in="SourceAlpha" type="matrix" values="0 0 0 0 0 0 0 0 0 0 0 0 0 0 0 0 0 0 127 0" result="hardAlpha"/>
<feMorphology radius="1" operator="dilate" in="SourceAlpha" result="effect1_dropShadow_9_2252"/>
<feOffset/>
<feComposite in2="hardAlpha" operator="out"/>
<feColorMatrix type="matrix" values="0 0 0 0 0 0 0 0 0 0.407843 0 0 0 0 1 0 0 0 0.1 0"/>
<feBlend mode="normal" in2="BackgroundImageFix" result="effect1_dropShadow_9_2252"/>
<feBlend mode="normal" in="SourceGraphic" in2="effect1_dropShadow_9_2252" result="shape"/>
</filter>
</defs>
</svg>
