<svg width="20" height="20" viewBox="0 0 20 20" fill="none" xmlns="http://www.w3.org/2000/svg">
<g clip-path="url(#clip0_22_23537)">
<path fill-rule="evenodd" clip-rule="evenodd" d="M16.1833 3.3501C16.6344 3.3501 17 3.6635 17 4.0501V15.9501C17 16.3367 16.6344 16.6501 16.1833 16.6501H3.81667C3.36563 16.6501 3 16.3367 3 15.9501V4.0501C3 3.6635 3.36563 3.3501 3.81667 3.3501H16.1833ZM6.50001 12.8H4.40001V15.25H6.50001V12.8ZM15.6 12.8H7.9V15.25H15.6V12.8ZM6.50001 8.60004H4.40001V11.4H6.50001V8.60004ZM15.6 8.60004H7.9V11.4H15.6V8.60004ZM6.50001 4.75001H4.40001V7.20001H6.50001V4.75001ZM15.6 4.75001H7.9V7.20001H15.6V4.75001Z" fill="#42464E"/>
</g>
<defs>
<clipPath id="clip0_22_23537">
<rect width="20" height="20" fill="white"/>
</clipPath>
</defs>
</svg>
