<svg width="20" height="24" viewBox="0 0 20 24" fill="none" xmlns="http://www.w3.org/2000/svg">
<path fill-rule="evenodd" clip-rule="evenodd" d="M18.3334 12.8658C18.3334 17.4467 14.6198 21.1602 10.0389 21.1602C5.45805 21.1602 1.74451 17.4467 1.74451 12.8658C1.74451 8.28494 5.45805 4.57141 10.0389 4.57141C14.6198 4.57141 18.3334 8.28494 18.3334 12.8658Z" fill="#141414" fill-opacity="0.08"/>
<path d="M9.96122 20.3298C14.5519 20.3298 18.2734 16.6083 18.2734 12.0177C18.2734 7.42698 14.5519 3.70551 9.96122 3.70551C5.37054 3.70551 1.64905 7.42698 1.64905 12.0177C1.64905 16.6083 5.37054 20.3298 9.96122 20.3298Z" fill="#EE3F38"/>
<path fill-rule="evenodd" clip-rule="evenodd" d="M10.0001 18.9442C13.8354 18.9442 16.9445 15.8351 16.9445 11.9999C16.9445 8.16464 13.8354 5.05555 10.0001 5.05555C6.16484 5.05555 3.05574 8.16464 3.05574 11.9999C3.05574 15.8351 6.16484 18.9442 10.0001 18.9442ZM18.3333 11.9999C18.3333 16.6022 14.6024 20.3331 10.0001 20.3331C5.39779 20.3331 1.66687 16.6022 1.66687 11.9999C1.66687 7.39759 5.39779 3.66669 10.0001 3.66669C14.6024 3.66669 18.3333 7.39759 18.3333 11.9999Z" fill="currentColor"/>
<path fill-rule="evenodd" clip-rule="evenodd" d="M12.9318 9.30874L13.5183 9.89525C13.7034 10.0803 13.7034 10.3804 13.5183 10.5655L11.6325 12.451L13.5183 14.3366C13.7034 14.5217 13.7034 14.8218 13.5183 15.0069L12.9318 15.5934C12.7467 15.7785 12.4466 15.7785 12.2615 15.5934L10.3753 13.707L8.49108 15.5927C8.30598 15.7778 8.00588 15.7778 7.82079 15.5927L7.23428 15.0062C7.04919 14.8211 7.04919 14.521 7.23428 14.3359L9.11811 12.451L7.23428 10.5662C7.04919 10.3811 7.04919 10.081 7.23428 9.89593L7.82079 9.30943C8.00588 9.12433 8.30598 9.12433 8.49108 9.30943L10.3753 11.1938L12.2615 9.30874C12.4466 9.12365 12.7467 9.12365 12.9318 9.30874Z" fill="#141414" fill-opacity="0.2"/>
<path fill-rule="evenodd" clip-rule="evenodd" d="M12.5171 8.89401L13.1036 9.48051C13.2887 9.66561 13.2887 9.96571 13.1036 10.1508L11.2178 12.0362L13.1036 13.9219C13.2887 14.107 13.2887 14.4071 13.1036 14.5922L12.5171 15.1787C12.332 15.3637 12.0319 15.3637 11.8468 15.1787L9.96064 13.2922L8.0764 15.178C7.89131 15.3631 7.59121 15.3631 7.40611 15.178L6.81961 14.5915C6.63451 14.4064 6.63451 14.1063 6.81961 13.9212L8.70344 12.0362L6.81961 10.1515C6.63451 9.96639 6.63451 9.66629 6.81961 9.4812L7.40611 8.89469C7.59121 8.7096 7.89131 8.7096 8.0764 8.89469L9.96064 10.779L11.8468 8.89401C12.0319 8.70891 12.332 8.70891 12.5171 8.89401Z" fill="white"/>
</svg>
